<svg width="220" height="168" viewBox="0 0 220 168" fill="none" xmlns="http://www.w3.org/2000/svg">
<g filter="url(#filter0_d_2_8)">
<path d="M85.832 46.8203C85.832 42.1979 89.1198 39.8542 95.6953 39.7891H161.027C167.017 39.7891 172.844 41.1888 178.508 43.9883C188.729 49.1315 193.872 57.4974 193.938 69.0859C193.938 77.9401 190.031 85.4596 182.219 91.6445C178.768 94.3138 174.992 96.4297 170.891 97.9922C176.424 101.312 181.307 106.586 185.539 113.812C193.612 127.81 199.634 137.576 203.605 143.109C207.642 148.643 211.646 151.996 215.617 153.168V158.344C205.07 159.32 196.867 157.302 191.008 152.289C185.214 147.276 179.354 138.878 173.43 127.094C167.505 115.245 163.729 107.986 162.102 105.316C160.474 102.647 158.911 101.312 157.414 101.312C155.982 101.247 154.777 102.387 153.801 104.73C152.889 107.074 152.141 108.539 151.555 109.125C150.578 110.036 149.016 110.525 146.867 110.59C144.784 110.59 143.124 109.646 141.887 107.758C140.715 105.87 140.129 104.079 140.129 102.387C140.129 96.8529 144.849 94.0859 154.289 94.0859C156.242 94.0859 157.87 94.151 159.172 94.2812C167.505 93.8906 173.299 89.7891 176.555 81.9766C177.987 78.3958 178.703 74.5221 178.703 70.3555C178.703 60.3294 175.057 53.2656 167.766 49.1641C163.859 47.0156 159.335 45.9414 154.191 45.9414H137.102V141.254C137.102 145.486 137.46 148.025 138.176 148.871C138.892 149.652 140.292 150.238 142.375 150.629L149.016 151.996V156H111.027V152.191L116.691 151.02C120.142 150.303 122.193 148.969 122.844 147.016C123.56 145.062 123.918 141.319 123.918 135.785V58.4414C122.616 49.9128 119.165 45.5182 113.566 45.2578C111.613 45.2578 109.042 46.5273 105.852 49.0664C101.49 52.582 97.7135 54.3724 94.5234 54.4375C91.3333 54.4375 89.0872 53.5911 87.7852 51.8984C86.4831 50.1406 85.832 48.4479 85.832 46.8203Z" fill="black"/>
</g>
<g filter="url(#filter1_d_2_8)">
<path d="M37.7852 38.2266C45.793 38.2266 51.9779 39.5612 56.3398 42.2305C62.3945 46.0716 67.2448 53.2656 70.8906 63.8125C84.0417 102.159 92.375 125.954 95.8906 135.199C99.5365 144.835 103.996 150.173 109.27 151.215L113.664 151.996V156H73.4297V151.898L80.9492 150.238C84.0091 149.457 85.5716 147.764 85.6367 145.16C85.6367 143.598 85.181 141.482 84.2695 138.812L77.043 117.133H37.4922C31.9583 134.646 29.1263 143.956 28.9961 145.062C28.9961 147.927 31.2747 149.88 35.832 150.922L41.5938 151.996V156H4.77734V151.898L10.2461 150.922C15.0638 150.01 19.263 144.379 22.8438 134.027L43.9375 72.7969C47.7786 61.5339 49.7969 54.763 49.9922 52.4844C50.2526 50.2057 49.5039 49.0664 47.7461 49.0664C45.6628 49.0664 43.6771 49.4245 41.7891 50.1406C39.9661 50.8568 38.7943 51.2148 38.2734 51.2148C35.1484 51.2148 33.0326 49.7826 31.9258 46.918C31.6003 45.9414 31.4375 44.9323 31.4375 43.8906C31.8932 40.3099 34.0091 38.4219 37.7852 38.2266ZM57.5117 56.9766L39.543 111.078H75.1875L57.5117 56.9766Z" fill="#010101"/>
</g>
<defs>
<filter id="filter0_d_2_8" x="81.832" y="39.7891" width="137.785" height="128.02" filterUnits="userSpaceOnUse" color-interpolation-filters="sRGB">
<feFlood flood-opacity="0" result="BackgroundImageFix"/>
<feColorMatrix in="SourceAlpha" type="matrix" values="0 0 0 0 0 0 0 0 0 0 0 0 0 0 0 0 0 0 127 0" result="hardAlpha"/>
<feOffset dy="4"/>
<feGaussianBlur stdDeviation="2"/>
<feComposite in2="hardAlpha" operator="out"/>
<feColorMatrix type="matrix" values="0 0 0 0 0 0 0 0 0 0 0 0 0 0 0 0 0 0 0.25 0"/>
<feBlend mode="normal" in2="BackgroundImageFix" result="effect1_dropShadow_2_8"/>
<feBlend mode="normal" in="SourceGraphic" in2="effect1_dropShadow_2_8" result="shape"/>
</filter>
<filter id="filter1_d_2_8" x="0.777344" y="38.2266" width="116.887" height="125.773" filterUnits="userSpaceOnUse" color-interpolation-filters="sRGB">
<feFlood flood-opacity="0" result="BackgroundImageFix"/>
<feColorMatrix in="SourceAlpha" type="matrix" values="0 0 0 0 0 0 0 0 0 0 0 0 0 0 0 0 0 0 127 0" result="hardAlpha"/>
<feOffset dy="4"/>
<feGaussianBlur stdDeviation="2"/>
<feComposite in2="hardAlpha" operator="out"/>
<feColorMatrix type="matrix" values="0 0 0 0 0 0 0 0 0 0 0 0 0 0 0 0 0 0 0.25 0"/>
<feBlend mode="normal" in2="BackgroundImageFix" result="effect1_dropShadow_2_8"/>
<feBlend mode="normal" in="SourceGraphic" in2="effect1_dropShadow_2_8" result="shape"/>
</filter>
</defs>
</svg>
